<?xml version="1.0" encoding="UTF-8"?>
<svg width="1200pt" height="1200pt" version="1.1" viewBox="0 0 1200 1200" xmlns="http://www.w3.org/2000/svg">
 <path fill="#994fbd" d="m623.22 10.668c-5.8203-6.7695-14.289-10.668-23.219-10.668s-17.41 3.8984-23.23 10.668c-32.426 37.754-50.258 85.859-50.258 135.62v270.04l-514.27 404.07v122.45l514.29-195.91v183.67c0 17.09 4.2109 33.91 12.254 48.984l-183.67 122.45v97.957l244.89-97.957 244.89 97.957v-97.957l-183.67-122.45c8.0391-15.07 12.254-31.895 12.254-48.984v-183.67l514.29 195.91v-122.45l-514.29-404.07v-270.04c0-49.766-17.832-97.871-50.258-135.62"/>
</svg>
